<svg xmlns="http://www.w3.org/2000/svg" xmlns:xlink="http://www.w3.org/1999/xlink" xmlns:s="https://github.com/nturley/netlistsvg" width="496" height="283"><style>svg {
  stroke:#000;
  fill:none;
}
text {
  fill:#000;
  stroke:none;
  font-size:10px;
  font-weight: bold;
  font-family: "Courier New", monospace;
}
line {
    stroke-linecap: round;
}
.nodelabel {
  text-anchor: middle;
}
.inputPortLabel {
  text-anchor: end;
}
.splitjoinBody {
  fill:#000;
}</style><g s:type="or" transform="translate(389,101.5)" s:width="30" s:height="25" id="cell_$or$full_adder.v:29$3"><s:alias val="$or"/><s:alias val="$logic_or"/><s:alias val="$_OR_"/><path d="M0,25 L0,25 L15,25 A15 12.5 0 0 0 15,0 L0,0 A30 25 0 0 1 0,25 Z" fill="#eebaff" class="cell_$or$full_adder.v:29$3"/><g s:x="2" s:y="5" s:pid="A"/><g s:x="2" s:y="20" s:pid="B"/><g s:x="30" s:y="12.5" s:pid="Y"/></g><g s:type="sub_odd" transform="translate(85,22)" s:width="30" s:height="40" id="cell_h1"><text x="43.5" y="-4" class="nodelabel cell_h1" s:attribute="ref">half_adder</text><rect width="87" height="116.5" s:generic="body" fill="#e9e9e9" rx="4" class="cell_h1"/><g s:type="and" transform="translate(43,72)" s:width="30" s:height="25" id="cell_$and$half_adder.v:19$1"><s:alias val="$and"/><s:alias val="$logic_and"/><s:alias val="$_AND_"/><path d="M0,0 L0,25 L15,25 A15 12.5 0 0 0 15,0 Z" fill="#eebaff" class="cell_$and$half_adder.v:19$1"/><g s:x="0" s:y="5" s:pid="A"/><g s:x="0" s:y="20" s:pid="B"/><g s:x="30" s:y="12.5" s:pid="Y"/></g><g s:type="reduce_xor" transform="translate(42,12)" s:width="33" s:height="25" id="cell_$xor$half_adder.v:20$2"><s:alias val="$xor"/><s:alias val="$reduce_xor"/><s:alias val="$_XOR_"/><path d="M3,0 A30 25 0 0 1 3,25 A30 25 0 0 0 33,12.5 A30 25 0 0 0 3,0" fill="#eebaff" class="cell_$xor$half_adder.v:20$2"/><path d="M0,0 A30 25 0 0 1 0,25" class="cell_$xor$half_adder.v:20$2"/><g s:x="2" s:y="5" s:pid="A"/><g s:x="2" s:y="20" s:pid="B"/><g s:x="33" s:y="12.5" s:pid="Y"/></g><line x1="0" x2="32" y1="17" y2="17" class="net_2"/><line x1="32" x2="32" y1="17" y2="77" class="net_2"/><circle cx="32" cy="17" r="2" style="fill:#000" class="net_2"/><line x1="32" x2="43" y1="77" y2="77" class="net_2"/><line x1="0" x2="44" y1="17" y2="17" class="net_2"/><line x1="0" x2="43" y1="92" y2="92" class="net_3"/><line x1="0" x2="22" y1="92" y2="92" class="net_3"/><line x1="22" x2="22" y1="92" y2="32" class="net_3"/><circle cx="22" cy="92" r="2" style="fill:#000" class="net_3"/><line x1="22" x2="44" y1="32" y2="32" class="net_3"/><line x1="73" x2="87" y1="84.5" y2="84.5" class="net_4"/><line x1="75" x2="87" y1="24.5" y2="24.5" class="net_5"/><g transform="translate(-1,16.5)" s:x="0" s:y="10" s:pid="in0" id="port_h1~a"><text x="-3" y="-4" class="inputPortLabel cell_h1">a</text></g><g transform="translate(-1,91.5)" s:x="0" s:y="10" s:pid="in0" id="port_h1~b"><text x="-3" y="-4" class="inputPortLabel cell_h1">b</text></g><g transform="translate(87,84)" s:x="30" s:y="10" s:pid="out0" id="port_h1~cout"><text x="5" y="-4" style="fill:#000; stroke:none" class="cell_h1">cout</text></g><g transform="translate(87,24)" s:x="30" s:y="10" s:pid="out0" id="port_h1~sum"><text x="5" y="-4" style="fill:#000; stroke:none" class="cell_h1">sum</text></g></g><g s:type="sub_odd" transform="translate(241,154.5)" s:width="30" s:height="40" id="cell_h2"><text x="43.5" y="-4" class="nodelabel cell_h2" s:attribute="ref">half_adder</text><rect width="87" height="116.5" s:generic="body" fill="#e9e9e9" rx="4" class="cell_h2"/><g s:type="and" transform="translate(43,72)" s:width="30" s:height="25" id="cell_$and$half_adder.v:19$1"><s:alias val="$and"/><s:alias val="$logic_and"/><s:alias val="$_AND_"/><path d="M0,0 L0,25 L15,25 A15 12.5 0 0 0 15,0 Z" fill="#eebaff" class="cell_$and$half_adder.v:19$1"/><g s:x="0" s:y="5" s:pid="A"/><g s:x="0" s:y="20" s:pid="B"/><g s:x="30" s:y="12.5" s:pid="Y"/></g><g s:type="reduce_xor" transform="translate(42,12)" s:width="33" s:height="25" id="cell_$xor$half_adder.v:20$2"><s:alias val="$xor"/><s:alias val="$reduce_xor"/><s:alias val="$_XOR_"/><path d="M3,0 A30 25 0 0 1 3,25 A30 25 0 0 0 33,12.5 A30 25 0 0 0 3,0" fill="#eebaff" class="cell_$xor$half_adder.v:20$2"/><path d="M0,0 A30 25 0 0 1 0,25" class="cell_$xor$half_adder.v:20$2"/><g s:x="2" s:y="5" s:pid="A"/><g s:x="2" s:y="20" s:pid="B"/><g s:x="33" s:y="12.5" s:pid="Y"/></g><line x1="0" x2="32" y1="17" y2="17" class="net_2"/><line x1="32" x2="32" y1="17" y2="77" class="net_2"/><circle cx="32" cy="17" r="2" style="fill:#000" class="net_2"/><line x1="32" x2="43" y1="77" y2="77" class="net_2"/><line x1="0" x2="44" y1="17" y2="17" class="net_2"/><line x1="0" x2="43" y1="92" y2="92" class="net_3"/><line x1="0" x2="22" y1="92" y2="92" class="net_3"/><line x1="22" x2="22" y1="92" y2="32" class="net_3"/><circle cx="22" cy="92" r="2" style="fill:#000" class="net_3"/><line x1="22" x2="44" y1="32" y2="32" class="net_3"/><line x1="73" x2="87" y1="84.5" y2="84.5" class="net_4"/><line x1="75" x2="87" y1="24.5" y2="24.5" class="net_5"/><g transform="translate(-1,16.5)" s:x="0" s:y="10" s:pid="in0" id="port_h2~a"><text x="-3" y="-4" class="inputPortLabel cell_h2">a</text></g><g transform="translate(-1,91.5)" s:x="0" s:y="10" s:pid="in0" id="port_h2~b"><text x="-3" y="-4" class="inputPortLabel cell_h2">b</text></g><g transform="translate(87,84)" s:x="30" s:y="10" s:pid="out0" id="port_h2~cout"><text x="5" y="-4" style="fill:#000; stroke:none" class="cell_h2">cout</text></g><g transform="translate(87,24)" s:x="30" s:y="10" s:pid="out0" id="port_h2~sum"><text x="5" y="-4" style="fill:#000; stroke:none" class="cell_h2">sum</text></g></g><g s:type="inputExt" transform="translate(12,29)" s:width="30" s:height="20" id="cell_a"><text x="15" y="-4" class="nodelabel cell_a" s:attribute="ref">a</text><s:alias val="$_inputExt_"/><path d="M0,0 L0,20 L15,20 L30,10 L15,0 Z" fill="#8bcaff" class="cell_a"/><g s:x="30" s:y="10" s:pid="Y"/></g><g s:type="inputExt" transform="translate(12,104)" s:width="30" s:height="20" id="cell_b"><text x="15" y="-4" class="nodelabel cell_b" s:attribute="ref">b</text><s:alias val="$_inputExt_"/><path d="M0,0 L0,20 L15,20 L30,10 L15,0 Z" fill="#8bcaff" class="cell_b"/><g s:x="30" s:y="10" s:pid="Y"/></g><g s:type="inputExt" transform="translate(142,236.5)" s:width="30" s:height="20" id="cell_cin"><text x="15" y="-4" class="nodelabel cell_cin" s:attribute="ref">cin</text><s:alias val="$_inputExt_"/><path d="M0,0 L0,20 L15,20 L30,10 L15,0 Z" fill="#8bcaff" class="cell_cin"/><g s:x="30" s:y="10" s:pid="Y"/></g><g s:type="outputExt" transform="translate(454,104)" s:width="30" s:height="20" id="cell_cout"><text x="15" y="-4" class="nodelabel cell_cout" s:attribute="ref">cout</text><s:alias val="$_outputExt_"/><path d="M30,0 L30,20 L15,20 L0,10 L15,0 Z" fill="#169300" class="cell_cout"/><g s:x="0" s:y="10" s:pid="A"/></g><g s:type="outputExt" transform="translate(454,169)" s:width="30" s:height="20" id="cell_sum"><text x="15" y="-4" class="nodelabel cell_sum" s:attribute="ref">sum</text><s:alias val="$_outputExt_"/><path d="M30,0 L30,20 L15,20 L0,10 L15,0 Z" fill="#169300" class="cell_sum"/><g s:x="0" s:y="10" s:pid="A"/></g><line x1="173" x2="391" y1="106.5" y2="106.5" class="net_7 width_1" style="stroke-width: 1"/><line x1="329" x2="364" y1="239" y2="239" class="net_8 width_1" style="stroke-width: 1"/><line x1="364" x2="364" y1="239" y2="121.5" class="net_8 width_1" style="stroke-width: 1"/><line x1="364" x2="391" y1="121.5" y2="121.5" class="net_8 width_1" style="stroke-width: 1"/><line x1="42" x2="84" y1="39" y2="39" class="net_2 width_1" style="stroke-width: 1"/><line x1="42" x2="84" y1="114" y2="114" class="net_3 width_1" style="stroke-width: 1"/><line x1="173" x2="208" y1="46.5" y2="46.5" class="net_9 width_1" style="stroke-width: 1"/><line x1="208" x2="208" y1="46.5" y2="171.5" class="net_9 width_1" style="stroke-width: 1"/><line x1="208" x2="240" y1="171.5" y2="171.5" class="net_9 width_1" style="stroke-width: 1"/><line x1="172" x2="240" y1="246.5" y2="246.5" class="net_4 width_1" style="stroke-width: 1"/><line x1="419" x2="454" y1="114" y2="114" class="net_5 width_1" style="stroke-width: 1"/><line x1="329" x2="454" y1="179" y2="179" class="net_6 width_1" style="stroke-width: 1"/></svg>